<?xml version="1.0" encoding="UTF-8"?>
<svg width="102px" height="101px" viewBox="0 0 102 101" version="1.1" xmlns="http://www.w3.org/2000/svg" xmlns:xlink="http://www.w3.org/1999/xlink">
    <!-- Generator: Sketch 43.2 (39069) - http://www.bohemiancoding.com/sketch -->
    <title>Slice</title>
    <desc>Created with Sketch.</desc>
    <defs></defs>
    <g id="Page-1" stroke="none" stroke-width="1" fill="none" fill-rule="evenodd">
        <g id="Group" transform="translate(51.000000, 50.000000) rotate(-270.000000) translate(-51.000000, -50.000000) translate(0.500000, -0.500000)" fill="#000000">
            <path d="M88.5010915,84 C88.5010915,84 89.0080189,39.9392829 88.8277273,37.2370511 C88.0295202,25.2734312 78.7382456,14.2095325 63.9990957,13.4619456 C61.7887574,13.3498346 9.95117188,13.4619456 9.95117188,13.4619456 L9.95117188,7 L63.9990957,7 L64.0045608,7 C80.5718784,7 94.2233163,20.423771 94.4962378,37.0033041 L94.5011749,37.3032258 L94.5011749,84 L88.5010915,84 Z" id="Rectangle"></path>
            <g id="arrow" transform="translate(11.500000, 10.000000) rotate(-180.000000) translate(-11.500000, -10.000000) " fill-rule="nonzero">
                <polygon id="Shape" points="13.4166667 0 6.488875 0 13.210625 6.5 3.55271368e-15 6.5 3.55271368e-15 12.5 13.210625 12.5 6.488875 20 13.4166667 20 23 10"></polygon>
            </g>
        </g>
        <rect id="Rectangle-2" fill="#000000" x="0" y="88" width="18" height="6"></rect>
    </g>
</svg>