<?xml version="1.0" encoding="UTF-8"?>
<svg width="153px" height="96px" viewBox="0 0 153 96" version="1.1" xmlns="http://www.w3.org/2000/svg" xmlns:xlink="http://www.w3.org/1999/xlink">
    <!-- Generator: Sketch 43.2 (39069) - http://www.bohemiancoding.com/sketch -->
    <title>Slice 3</title>
    <desc>Created with Sketch.</desc>
    <defs></defs>
    <g id="Page-1" stroke="none" stroke-width="1" fill="none" fill-rule="evenodd">
        <g id="Group" transform="translate(98.000000, 50.500000) scale(-1, 1) rotate(-180.000000) translate(-98.000000, -50.500000) translate(37.000000, 0.000000)" fill="#000000">
            <path d="M109.501092,84 C109.501092,84 110.008019,39.9392829 109.827727,37.2370511 C109.02952,25.2734312 99.7382456,14.2095325 84.9990957,13.4619456 C82.7887574,13.3498346 30.9511719,13.4619456 30.9511719,13.4619456 L30.9511719,7 L84.9990957,7 L85.0045608,7 C101.571878,7 115.223316,20.423771 115.496238,37.0033041 L115.501175,37.3032258 L115.501175,84 L109.501092,84 Z" id="Rectangle"></path>
            <rect id="Rectangle-2" transform="translate(112.500000, 90.143103) rotate(-270.000000) translate(-112.500000, -90.143103) " x="103.5" y="87.1431027" width="18" height="6"></rect>
            <rect id="Rectangle-2" transform="translate(42.275002, 10.000000) rotate(-360.000000) translate(-42.275002, -10.000000) " x="-1.42108547e-14" y="7" width="84.5500031" height="6"></rect>
        </g>
        <g id="Group" transform="translate(50.500000, 50.000000) scale(-1, 1) rotate(-270.000000) translate(-50.500000, -50.000000) translate(0.000000, -0.500000)" fill="#000000">
            <path d="M88.5010915,74 C88.5010915,74 88.6319114,65.2101425 88.7370025,56.2066752 C88.8387834,47.4867944 88.9164307,38.5665481 88.8277273,37.2370511 C88.0295202,25.2734312 78.7382456,14.2095325 63.9990957,13.4619456 C61.7887574,13.3498346 9.95117188,13.4619456 9.95117188,13.4619456 L9.95117188,7 L63.9990957,7 L64.0045608,7 C80.5718784,7 94.2233163,20.423771 94.4962378,37.0033041 L94.5011749,37.3032258 L94.5011749,74 L88.5010915,74 Z" id="Rectangle"></path>
            <g id="arrow" transform="translate(11.500000, 10.000000) rotate(-180.000000) translate(-11.500000, -10.000000) " fill-rule="nonzero">
                <polygon id="Shape" points="13.4166667 0 6.488875 0 13.210625 6.5 3.55271368e-15 6.5 3.55271368e-15 12.5 13.210625 12.5 6.488875 20 13.4166667 20 23 10"></polygon>
            </g>
        </g>
    </g>
</svg>